<svg width="429" height="291" viewBox="0 0 429 291" fill="none" xmlns="http://www.w3.org/2000/svg">
<path d="M29.7 170.886V128.886H71.7V134.886H41.7V146.886H65.7V152.886H41.7V170.886H29.7ZM88.5 170.886V164.886H82.5V158.886H88.5V152.886H112.5V146.886H88.5V140.886H118.5V146.886H124.5V170.886H88.5ZM94.5 164.886H112.5V158.886H94.5V164.886ZM141.3 170.886V164.886H135.3V146.886H141.3V140.886H177.3V146.886H147.3V164.886H177.3V170.886H141.3ZM206.1 170.886V146.886H194.1V140.886H206.1V128.886H218.1V140.886H230.1V146.886H218.1V170.886H206.1ZM246.9 170.886V164.886H240.9V146.886H246.9V140.886H276.9V146.886H282.9V164.886H276.9V170.886H246.9ZM252.9 164.886H270.9V146.886H252.9V164.886ZM311.7 146.886H317.7V152.886H311.7V170.886H299.7V140.886H311.7V146.886ZM335.7 140.886V146.886H317.7V140.886H335.7ZM352.5 176.886V170.886H376.5V164.886H352.5V158.886H346.5V140.886H358.5V158.886H376.5V140.886H388.5V170.886H382.5V176.886H352.5ZM58.5 270.886V228.886H100.5V234.886H70.5V246.886H94.5V252.886H70.5V270.886H58.5ZM117.3 270.886V264.886H111.3V240.886H123.3V264.886H141.3V240.886H153.3V270.886H117.3ZM182.1 270.886V246.886H170.1V240.886H182.1V228.886H194.1V240.886H206.1V246.886H194.1V270.886H182.1ZM222.9 270.886V264.886H216.9V240.886H228.9V264.886H246.9V240.886H258.9V270.886H222.9ZM287.7 246.886H293.7V252.886H287.7V270.886H275.7V240.886H287.7V246.886ZM311.7 240.886V246.886H293.7V240.886H311.7ZM328.5 270.886V264.886H322.5V246.886H328.5V240.886H358.5V246.886H364.5V258.886H334.5V264.886H358.5V270.886H328.5ZM334.5 252.886H352.5V246.886H334.5V252.886Z" fill="url(#paint0_linear)"/>
<path d="M177.961 12.2706L205.318 2.65008L232.675 12.2706L247.18 36.5459L242.149 64.1158L219.883 82.1676H190.752L168.486 64.1158L163.455 36.5459L177.961 12.2706Z" stroke="#F3DC68" stroke-width="5"/>
<rect x="190.179" y="23.3493" width="8.05102" height="7.59833" stroke="#F7B526" stroke-width="1.5"/>
<rect x="190.179" y="55.1935" width="8.05102" height="6.84013" stroke="#F7B526" stroke-width="1.5"/>
<rect x="214.852" y="23.3493" width="10.4388" height="7.59833" stroke="#F7B526" stroke-width="1.5"/>
<rect x="212.464" y="39.2714" width="8.84694" height="7.59833" stroke="#F7B526" stroke-width="1.5"/>
<rect width="8.57537" height="15.4112" transform="matrix(-0.00522577 0.999986 -0.999989 -0.00474215 214.285 22.9897)" stroke="#F3DC68"/>
<rect width="8.2456" height="12.8011" transform="matrix(-0.00522577 0.999986 -0.999989 -0.00474215 211.825 38.9736)" stroke="#F3DC68"/>
<rect width="22.9773" height="8.77418" transform="matrix(-0.00522577 0.999986 -0.999989 -0.00474215 198.525 31.7517)" stroke="#F3DC68"/>
<defs>
<linearGradient id="paint0_linear" x1="214.5" y1="2.88632" x2="214.5" y2="291" gradientUnits="userSpaceOnUse">
<stop stop-color="#F3DC68"/>
<stop offset="0.848958" stop-color="#F9C34E"/>
</linearGradient>
</defs>
</svg>
