<svg width="461" height="278" viewBox="0 0 461 278" fill="none" xmlns="http://www.w3.org/2000/svg">
<path d="M78.5 266H33L78.5 43H193L168.5 86H119L107 142H141.5L128.5 172.5H96.5L78.5 266Z" fill="#F3DC68"/>
<path d="M45.5 223H0L45.5 0H160L135.5 43H86L74 99H108.5L95.5 129.5H63.5L45.5 223Z" fill="#F7B526"/>
<path d="M162.576 185.52L174.48 119.568C174.544 119.312 174.704 119.184 174.96 119.184H188.88C189.136 119.184 189.296 119.312 189.36 119.568L200.784 185.52C200.848 185.84 200.72 186 200.4 186H189.744C189.488 186 189.328 185.84 189.264 185.52L188.208 178.512H175.152L174.096 185.52C174.032 185.84 173.872 186 173.616 186H162.96C162.704 186 162.576 185.84 162.576 185.52ZM177.072 168.24H186.288L182.352 141.264L181.776 137.712L181.392 141.264L177.072 168.24ZM232.01 186.96C228.49 186.96 225.29 186.096 222.41 184.368C219.594 182.576 217.354 180.208 215.69 177.264C214.026 174.32 213.194 171.024 213.194 167.376L213.29 137.424C213.29 133.904 214.09 130.704 215.69 127.824C217.354 124.88 219.594 122.544 222.41 120.816C225.29 119.024 228.49 118.128 232.01 118.128C235.53 118.128 238.698 118.992 241.514 120.72C244.33 122.448 246.57 124.784 248.234 127.728C249.898 130.608 250.73 133.84 250.73 137.424V141.84C250.73 142.096 250.602 142.224 250.346 142.224H239.594C239.338 142.224 239.21 142.096 239.21 141.84V137.424C239.21 135.312 238.506 133.488 237.098 131.952C235.754 130.416 234.058 129.648 232.01 129.648C229.706 129.648 227.946 130.448 226.73 132.048C225.514 133.584 224.906 135.376 224.906 137.424V167.376C224.906 169.744 225.578 171.664 226.922 173.136C228.33 174.608 230.026 175.344 232.01 175.344C234.058 175.344 235.754 174.544 237.098 172.944C238.506 171.28 239.21 169.424 239.21 167.376V162.96C239.21 162.704 239.338 162.576 239.594 162.576H250.442C250.698 162.576 250.826 162.704 250.826 162.96V167.376C250.826 171.024 249.962 174.32 248.234 177.264C246.57 180.208 244.33 182.576 241.514 184.368C238.698 186.096 235.53 186.96 232.01 186.96ZM275.827 186C275.571 186 275.443 185.84 275.443 185.52V130.8H262.963C262.643 130.8 262.483 130.64 262.483 130.32L262.579 119.568C262.579 119.312 262.707 119.184 262.963 119.184H299.443C299.763 119.184 299.924 119.312 299.924 119.568V130.32C299.924 130.64 299.795 130.8 299.539 130.8H286.963L287.059 185.52C287.059 185.84 286.931 186 286.675 186H275.827ZM331.088 186.96C327.632 186.96 324.464 186.096 321.584 184.368C318.768 182.576 316.496 180.24 314.768 177.36C313.04 174.416 312.176 171.184 312.176 167.664L312.272 137.232C312.272 133.712 313.104 130.512 314.768 127.632C316.496 124.752 318.8 122.448 321.68 120.72C324.56 118.992 327.696 118.128 331.088 118.128C334.544 118.128 337.68 118.992 340.496 120.72C343.312 122.448 345.552 124.752 347.216 127.632C348.944 130.512 349.808 133.712 349.808 137.232L349.904 167.664C349.904 171.184 349.04 174.416 347.312 177.36C345.648 180.24 343.376 182.576 340.496 184.368C337.68 186.096 334.544 186.96 331.088 186.96ZM331.088 175.344C333.008 175.344 334.672 174.576 336.08 173.04C337.552 171.44 338.288 169.648 338.288 167.664L338.192 137.232C338.192 135.12 337.52 133.328 336.176 131.856C334.832 130.384 333.136 129.648 331.088 129.648C329.104 129.648 327.408 130.384 326 131.856C324.592 133.264 323.888 135.056 323.888 137.232V167.664C323.888 169.776 324.592 171.6 326 173.136C327.408 174.608 329.104 175.344 331.088 175.344ZM367.186 186C366.93 186 366.802 185.84 366.802 185.52L366.994 119.568C366.994 119.312 367.122 119.184 367.378 119.184H386.77C390.226 119.184 393.394 120.048 396.274 121.776C399.218 123.44 401.554 125.712 403.282 128.592C405.01 131.408 405.874 134.608 405.874 138.192C405.874 140.56 405.522 142.704 404.818 144.624C404.114 146.48 403.282 148.08 402.322 149.424C401.362 150.704 400.498 151.664 399.73 152.304C403.186 156.144 404.914 160.656 404.914 165.84L405.01 185.52C405.01 185.84 404.85 186 404.53 186H393.682C393.426 186 393.298 185.904 393.298 185.712V165.84C393.298 163.536 392.466 161.552 390.802 159.888C389.202 158.16 387.218 157.296 384.85 157.296H378.514L378.418 185.52C378.418 185.84 378.29 186 378.034 186H367.186ZM378.514 145.776H386.77C388.754 145.776 390.514 145.04 392.05 143.568C393.586 142.096 394.354 140.304 394.354 138.192C394.354 136.144 393.586 134.384 392.05 132.912C390.578 131.44 388.818 130.704 386.77 130.704H378.514V145.776ZM428.737 186C428.545 186 428.449 185.872 428.449 185.616L428.545 158.352L415.681 119.568C415.617 119.312 415.713 119.184 415.969 119.184H426.625C426.945 119.184 427.137 119.312 427.201 119.568L434.305 145.392L441.505 119.568C441.569 119.312 441.729 119.184 441.985 119.184H452.737C452.993 119.184 453.089 119.312 453.025 119.568L440.065 157.968L440.161 185.616C440.161 185.872 440.033 186 439.777 186H428.737Z" fill="#F7B526"/>
<path d="M183.504 271.96C180.112 271.96 176.976 271.096 174.096 269.368C171.216 267.576 168.912 265.208 167.184 262.264C165.52 259.32 164.688 256.088 164.688 252.568L164.88 204.568C164.88 204.312 165.008 204.184 165.264 204.184H176.016C176.272 204.184 176.4 204.312 176.4 204.568V252.568C176.4 254.744 177.072 256.6 178.416 258.136C179.824 259.608 181.52 260.344 183.504 260.344C185.552 260.344 187.248 259.608 188.592 258.136C190 256.6 190.704 254.744 190.704 252.568V204.568C190.704 204.312 190.832 204.184 191.088 204.184H201.84C202.096 204.184 202.224 204.312 202.224 204.568L202.416 252.568C202.416 256.152 201.552 259.416 199.824 262.36C198.16 265.304 195.888 267.64 193.008 269.368C190.192 271.096 187.024 271.96 183.504 271.96ZM229.196 271C228.94 271 228.812 270.84 228.812 270.52V215.8H216.332C216.012 215.8 215.852 215.64 215.852 215.32L215.948 204.568C215.948 204.312 216.076 204.184 216.332 204.184H252.812C253.132 204.184 253.292 204.312 253.292 204.568V215.32C253.292 215.64 253.164 215.8 252.908 215.8H240.332L240.428 270.52C240.428 270.84 240.3 271 240.044 271H229.196ZM285.298 271.96C281.906 271.96 278.77 271.096 275.89 269.368C273.01 267.576 270.706 265.208 268.978 262.264C267.314 259.32 266.482 256.088 266.482 252.568L266.674 204.568C266.674 204.312 266.802 204.184 267.058 204.184H277.81C278.066 204.184 278.194 204.312 278.194 204.568V252.568C278.194 254.744 278.866 256.6 280.21 258.136C281.618 259.608 283.314 260.344 285.298 260.344C287.346 260.344 289.042 259.608 290.386 258.136C291.794 256.6 292.498 254.744 292.498 252.568V204.568C292.498 204.312 292.626 204.184 292.882 204.184H303.634C303.89 204.184 304.018 204.312 304.018 204.568L304.21 252.568C304.21 256.152 303.346 259.416 301.618 262.36C299.954 265.304 297.682 267.64 294.802 269.368C291.986 271.096 288.818 271.96 285.298 271.96ZM321.774 271C321.518 271 321.39 270.84 321.39 270.52L321.582 204.568C321.582 204.312 321.71 204.184 321.966 204.184H341.358C344.814 204.184 347.982 205.048 350.862 206.776C353.806 208.44 356.142 210.712 357.87 213.592C359.598 216.408 360.462 219.608 360.462 223.192C360.462 225.56 360.11 227.704 359.406 229.624C358.702 231.48 357.87 233.08 356.91 234.424C355.95 235.704 355.086 236.664 354.318 237.304C357.774 241.144 359.502 245.656 359.502 250.84L359.598 270.52C359.598 270.84 359.438 271 359.118 271H348.27C348.014 271 347.886 270.904 347.886 270.712V250.84C347.886 248.536 347.054 246.552 345.39 244.888C343.79 243.16 341.806 242.296 339.438 242.296H333.102L333.006 270.52C333.006 270.84 332.878 271 332.622 271H321.774ZM333.102 230.776H341.358C343.342 230.776 345.102 230.04 346.638 228.568C348.174 227.096 348.942 225.304 348.942 223.192C348.942 221.144 348.174 219.384 346.638 217.912C345.166 216.44 343.406 215.704 341.358 215.704H333.102V230.776ZM377.686 271C377.43 271 377.302 270.84 377.302 270.52L377.398 204.568C377.398 204.312 377.526 204.184 377.782 204.184H408.598C408.854 204.184 408.982 204.344 408.982 204.664V215.416C408.982 215.672 408.854 215.8 408.598 215.8H388.918V230.776H408.598C408.854 230.776 408.982 230.904 408.982 231.16L409.078 242.008C409.078 242.264 408.95 242.392 408.694 242.392H388.918V259.192H408.694C408.95 259.192 409.078 259.352 409.078 259.672V270.616C409.078 270.872 408.95 271 408.694 271H377.686Z" fill="#F3DC68"/>
</svg>
